<?xml version="1.0" encoding="utf-8"?>
<!-- Generator: Adobe Illustrator 24.2.0, SVG Export Plug-In . SVG Version: 6.00 Build 0)  -->
<svg version="1.1" id="Layer_1" xmlns="http://www.w3.org/2000/svg" xmlns:xlink="http://www.w3.org/1999/xlink" x="0px" y="0px"
	 viewBox="0 0 536 576" style="enable-background:new 0 0 536 576;" xml:space="preserve">
<style type="text/css">
	.st0{fill:#2E62CC;}
</style>
<g>
	<path class="st0" d="M516.59,284.52c0,40.24-0.06,80.49,0.05,120.73c0.03,9.71-1.32,18.9-9.35,25.3
		c-4.68,3.74-10.09,6.62-15.35,9.58c-20.87,11.74-41.84,23.31-62.72,35.04c-23.29,13.09-46.51,26.31-69.79,39.41
		c-16.11,9.06-32.29,17.99-48.42,27c-9.64,5.38-19.25,10.8-28.87,16.19c-4.59,2.58-9.44,4.25-14.76,4.57
		c-7.39,0.45-13.52-2.97-19.61-6.34c-12.41-6.87-24.69-13.95-37.05-20.92c-25.81-14.55-51.62-29.11-77.46-43.6
		c-15.62-8.76-31.32-17.36-46.93-26.14c-18.93-10.64-37.85-21.31-56.69-32.12c-8.92-5.11-12.7-13.47-12.72-23.32
		c-0.11-82.3-0.07-164.6-0.03-246.9c0-10.83,4.14-19.65,13.71-25.2c12.12-7.04,24.43-13.76,36.65-20.63
		c8.86-4.99,17.7-10.02,26.57-14.99c13.36-7.49,26.74-14.94,40.09-22.42c16.62-9.31,33.22-18.66,49.85-27.96
		c11.02-6.17,22.06-12.28,33.09-18.42c12.15-6.77,24.17-13.78,36.48-20.25c9.93-5.22,19.81-3.91,29.4,1.6
		c11.55,6.64,23.22,13.08,34.85,19.58c15.11,8.43,30.23,16.83,45.34,25.25c13.27,7.4,26.54,14.81,39.8,22.23
		c17.14,9.58,34.26,19.18,51.4,28.75c14.9,8.32,29.74,16.76,44.74,24.89c9.07,4.92,15.1,12.24,17.38,22.09
		c1.12,4.84,0.29,10.13,0.3,15.22c0.03,32.96,0.05,65.93,0.07,98.89c0,4.3,0,8.59,0,12.89C516.61,284.52,516.6,284.52,516.59,284.52
		z M428.03,376.53c-1.86-1.06-3.04-1.74-4.24-2.4c-10.65-5.87-21.29-11.75-31.94-17.61c-14.34-7.9-28.68-15.79-43.01-23.69
		c-1.69-0.93-2.71-0.77-4,1.04c-3.77,5.31-7.42,10.83-11.94,15.47c-15.58,16-34.46,25.53-56.87,27.74
		c-27.77,2.74-51.81-5.75-72.28-24.35c-9.6-8.72-16.33-19.44-21.33-31.55c-15.06-36.45-5.99-78.18,25.01-104.61
		c23.28-19.85,50.5-26.43,80.39-19.49c23.47,5.45,41.67,18.99,55.14,38.87c1.81,2.67,3.44,2.54,5.81,1.18
		c24.83-14.28,49.65-28.58,74.54-42.73c2.72-1.55,3.06-2.76,1.44-5.41c-10.38-17.03-23.42-31.75-38.5-44.71
		c-14.12-12.13-29.8-21.81-46.95-29.03c-28.93-12.17-59.07-16.54-90.3-13.78c-22.64,2.01-44.15,8.1-64.48,18.12
		c-19.23,9.47-36.22,22.04-51.17,37.53c-16.55,17.15-29.34,36.61-38.33,58.62c-12.82,31.4-16.48,64.02-11.61,97.43
		c3.39,23.29,10.86,45.19,23.31,65.55c16.67,27.27,37.91,49.75,65.4,65.9c38.54,22.65,80.06,30.63,124.39,23.52
		c23.76-3.82,45.83-12.05,66.33-24.54c20.79-12.67,38.4-28.89,52.82-48.49C420,389.24,423.78,382.96,428.03,376.53z M371.85,326.03
		c3.51,0,7.03-0.2,10.53,0.06c3.07,0.23,3.89-1.13,3.85-3.88c-0.09-6.08,0.11-12.17-0.08-18.25c-0.1-3.14,1.1-4.07,4.1-3.99
		c6.2,0.17,12.4,0.01,18.6,0.06c2.48,0.02,3.58-0.94,3.54-3.56c-0.11-7.02-0.12-14.04,0-21.05c0.04-2.72-1.01-3.8-3.71-3.76
		c-6.08,0.08-12.17-0.11-18.25,0.07c-3.15,0.1-4.41-0.86-4.29-4.17c0.22-5.96-0.02-11.93,0.09-17.9c0.05-2.91-0.77-4.19-4.02-4.07
		c-6.78,0.26-13.58,0.26-20.35,0c-3.25-0.12-4.08,1.15-4.03,4.07c0.11,6.08-0.09,12.17,0.08,18.25c0.08,2.96-1.08,3.87-3.92,3.81
		c-6.2-0.14-12.4,0.02-18.6-0.06c-2.69-0.04-3.75,1.03-3.71,3.76c0.11,6.9,0.14,13.8-0.02,20.7c-0.07,2.93,1.07,3.98,3.9,3.93
		c6.08-0.1,12.17,0.1,18.25-0.07c3-0.08,4.2,0.85,4.11,3.99c-0.19,6.08,0.01,12.17-0.08,18.25c-0.04,2.75,0.76,4.11,3.84,3.88
		C365.05,325.84,368.46,326.03,371.85,326.03z M504.42,285.69c0-3.39-0.16-6.79,0.05-10.18c0.18-2.97-1.08-3.91-3.88-3.86
		c-6.08,0.11-12.17-0.13-18.25,0.09c-3.32,0.12-4.26-1.16-4.16-4.3c0.19-5.84-0.04-11.7,0.09-17.55c0.07-3.03-0.73-4.44-4.17-4.3
		c-6.54,0.27-13.11,0.28-19.65,0c-3.43-0.14-4.19,1.19-4.11,4.26c0.17,6.08-0.07,12.17,0.1,18.25c0.08,2.83-1.02,3.66-3.7,3.61
		c-6.31-0.13-12.64,0.05-18.95-0.08c-2.83-0.06-4,0.91-3.95,3.85c0.13,6.9,0.13,13.81,0,20.71c-0.06,2.91,1.07,3.93,3.93,3.87
		c6.2-0.13,12.4,0.09,18.6-0.09c2.99-0.08,4.21,0.77,4.08,3.95c-0.22,5.61-0.07,11.23-0.06,16.84c0,5.26,0.01,5.25,5.09,5.25
		c6.2,0,12.41-0.19,18.6,0.08c3.41,0.15,4.43-1.22,4.15-4.28c-0.04-0.46-0.01-0.94,0-1.4c0.15-6.53,0.3-13.05,0.45-19.58
		c6.59-0.27,13.18-0.55,19.78-0.82c0.7-0.03,1.41-0.06,2.11,0c2.77,0.22,4.09-0.8,3.9-3.81
		C504.26,292.72,504.42,289.2,504.42,285.69z"/>
</g>
</svg>
