<?xml version="1.0" encoding="utf-8"?>
<!-- Generator: Adobe Illustrator 24.2.0, SVG Export Plug-In . SVG Version: 6.00 Build 0)  -->
<svg version="1.1" id="Layer_1" xmlns="http://www.w3.org/2000/svg" xmlns:xlink="http://www.w3.org/1999/xlink" x="0px" y="0px"
	 viewBox="0 0 125.25 141.23" style="enable-background:new 0 0 125.25 141.23;" xml:space="preserve">
<style type="text/css">
	.st0{fill:#9419A5;}
	.st1{fill:#B52DB2;}
</style>
<g>
	<path class="st0" d="M125.24,70.44c0,9.62-0.04,19.24,0.01,28.85c0.02,5.13-2.08,8.88-6.57,11.45c-16.52,9.47-32.98,19-49.45,28.54
		c-4.43,2.56-8.83,2.61-13.24,0.06c-16.61-9.58-33.19-19.22-49.81-28.76c-4.22-2.43-6.15-6.07-6.16-10.8
		c-0.04-19.47-0.01-38.93-0.01-58.41c0-4.73,2.03-8.3,6.14-10.67c16.61-9.58,33.21-19.19,49.81-28.79c4.36-2.51,8.73-2.57,13.1-0.06
		c16.69,9.63,33.39,19.25,50.07,28.91c4.13,2.39,6.15,6,6.13,10.82C125.2,51.2,125.24,60.82,125.24,70.44z M98.9,91.11
		c-6.11-3.55-12.13-7.04-18.23-10.56c-0.32,0.49-0.57,0.88-0.83,1.26c-5.33,8.17-15.61,11.52-24.66,8.06
		c-8.91-3.42-14.46-12.91-12.95-22.41c1.75-10.98,11.41-18.35,21.97-17.42c6.58,0.57,11.67,3.67,15.38,9.06
		c0.65,0.95,1.09,1.12,2.11,0.51c5.35-3.16,10.76-6.23,16.14-9.35c0.32-0.18,0.61-0.43,0.89-0.63
		c-7.03-13.23-23.95-23.82-43.22-20.53c-19.02,3.26-33.74,19.07-34.83,39.41c-1.02,19.34,12,37.28,30.62,42.35
		C70.86,116.21,89.94,107.13,98.9,91.11z M112.88,77.73c0.12-0.07,0.23-0.17,0.36-0.19c0.97-0.17,2.4,0.01,2.83-0.56
		c0.5-0.69,0.15-2.01,0.17-3.05c0-0.23-0.06-0.45-0.11-0.87c-1.1,0-2.16,0-3.19,0c0-1.67,0-3.12,0-4.7c0.83,0,1.6,0.07,2.33-0.04
		c0.34-0.05,0.89-0.44,0.91-0.71c0.11-1.17,0.05-2.35,0.05-3.67c-1.2,0-2.22,0-3.42,0c0-1.21,0-2.27,0-3.32c-1.53,0-2.89,0-4.38,0
		c0,1.13,0,2.15,0,3.21c-1.64,0-3.12,0-4.76,0c0-1.12,0-2.15,0-3.25c-1.5,0-2.85,0-4.38,0c0,1.14,0,2.2,0,3.38
		c-1.16,0-2.14,0-3.34,0c0,1.15,0.04,2.19-0.01,3.21c-0.04,0.85,0.27,1.24,1.15,1.18c0.69-0.05,1.39-0.01,2.09-0.01
		c0,1.68,0,3.17,0,4.43c-1.03,0.94-2.87-0.83-3.21,1.3c-0.15,1.01-0.33,2.44,0.2,3.01c0.56,0.61,1.97,0.42,3.05,0.6
		c0.05,1.04,0.11,2.05,0.17,3.19c1,0,1.85-0.06,2.7,0.01c1.21,0.12,1.8-0.26,1.63-1.57c-0.07-0.55-0.01-1.11-0.01-1.73
		c1.65,0,3.13,0,4.62,0c0.11,1.08-0.14,2.42,0.39,2.94s1.86,0.33,2.84,0.32C114.18,80.83,112.06,78.64,112.88,77.73z"/>
	<path class="st1" d="M103.76,72.97c0-1.54,0-2.99,0-4.52c1.54,0,3.03,0,4.58,0c0,1.51,0,2.96,0,4.52
		C106.86,72.97,105.39,72.97,103.76,72.97z"/>
</g>
</svg>
