<?xml version="1.0" encoding="utf-8"?>
<!-- Generator: Adobe Illustrator 24.2.0, SVG Export Plug-In . SVG Version: 6.00 Build 0)  -->
<svg version="1.1" id="Capa_1" xmlns="http://www.w3.org/2000/svg" xmlns:xlink="http://www.w3.org/1999/xlink" x="0px" y="0px"
	 viewBox="0 0 511 511" style="enable-background:new 0 0 511 511;" xml:space="preserve">
<style type="text/css">
	.st0{fill:#FFA600;}
</style>
<g>
	<path class="st0" d="M487.5,128.1H479v-24.5c0-2.9-1.7-5.5-4.3-6.8C405.1,64,325.4,63.6,255.5,95.4
		c-69.9-31.8-149.6-31.3-219.2,1.4c-2.6,1.2-4.3,3.9-4.3,6.8v24.5h-8.5c-13,0-23.5,10.5-23.5,23.5v264c0,13,10.5,23.5,23.5,23.5h464
		c13,0,23.5-10.5,23.5-23.5v-264C511,138.6,500.5,128.1,487.5,128.1z M263,239.6L263,239.6V108.4c64.1-28.7,136.9-28.7,201,0v27.2
		l0,0l0,0V380c-32.2-13.5-66.4-20.2-100.5-20.2S295.2,366.5,263,380V239.6z M248.3,243.8v136.5c-32.2-13.5-66.4-20.2-100.5-20.2
		s-68.6,6.5-100.8,20V135.6l0,0l0,0l0,0v-27.2c48.6-21.7,100.7-30.5,199.4-4.9 M224,424.1H23.5c-4.7,0-8.5-3.8-8.5-8.5v-264
		c0-4.7,3.8-8.5,8.5-8.5H32v248.5v8c0,4.1,3.4,7.5,7.5,7.5H224V424.1z M57.3,392.1c58.1-22.9,122.3-22.9,180.4,0H57.3z M272,424.1
		h-33v-17h33V424.1z M453.7,392.1H273.3C331.4,369.2,395.6,369.2,453.7,392.1z M496,415.6c0,4.7-3.8,8.5-8.5,8.5H287v-17h184.5
		c4.1,0,7.5-3.4,7.5-7.5v-8V143.1h8.5c4.7,0,8.5,3.8,8.5,8.5V415.6z"/>
</g>
</svg>
