<?xml version="1.0" encoding="utf-8"?>
<!-- Generator: Adobe Illustrator 24.2.0, SVG Export Plug-In . SVG Version: 6.00 Build 0)  -->
<svg version="1.1" id="Layer_1" xmlns="http://www.w3.org/2000/svg" xmlns:xlink="http://www.w3.org/1999/xlink" x="0px" y="0px"
	 viewBox="0 0 202.45 202.37" style="enable-background:new 0 0 202.45 202.37;" xml:space="preserve">
<style type="text/css">
	.st0{fill:#795548;}
</style>
<g>
	<path class="st0" d="M202.37,98.21c2.17,50.65-36.03,97.88-90.35,103.58C54.73,207.8,6.83,166.17,0.67,112.69
		C-5.88,55.74,36.12,6.18,90.51,0.56C151.21-5.71,201.21,41.45,202.37,98.21z M143.52,69.23c0.43,0.24,0.86,0.48,1.29,0.71
		c0,6.46-0.03,12.92,0.01,19.38c0.03,5.83,2.84,9.3,7.4,9.28c4.64-0.02,7.62-3.52,7.64-9.14c0.04-12.5,0.04-24.99,0-37.49
		c-0.02-6.36-2.76-9.17-9.07-9.2c-12.5-0.06-25-0.05-37.5,0c-5.62,0.02-9.22,3.13-9.17,7.69c0.05,4.59,3.51,7.48,9.24,7.55
		c6.42,0.07,12.83,0.02,20.77,0.02c-4.02,3.91-7.19,6.57-9.82,9.68c-2.73,3.21-5.81,4.19-9.98,4.15c-20.17-0.21-40.33-0.1-60.5-0.09
		c-8.78,0-11.04,2.21-11.04,10.76c0,22.49-0.01,44.99,0.01,67.48c0.01,6.94,2.66,9.61,9.65,9.62c22.83,0.03,45.67,0.03,68.5,0
		c7.36-0.01,9.89-2.56,9.89-9.89c0.01-20.99-0.04-41.99,0.08-62.98c0.01-1.98,0.54-4.38,1.74-5.84
		C136.03,76.81,139.87,73.09,143.52,69.23z"/>
	<path class="st0" d="M58.52,87.2c15.19,0,30,0,45.49,0c-0.94,1.2-1.57,2.21-2.39,3.03c-6.34,6.39-12.76,12.7-19.08,19.12
		c-4.17,4.24-4.42,8.4-0.89,11.79c3.37,3.23,7.4,3,11.42-1.07c7.13-7.24,14.09-14.65,21.12-21.99c0.38,0.25,0.77,0.49,1.15,0.74
		c0,15.11,0,30.22,0,45.61c-18.86,0-37.64,0-56.82,0C58.52,125.55,58.52,106.66,58.52,87.2z"/>
</g>
</svg>
