<?xml version="1.0" encoding="utf-8"?>
<!-- Generator: Adobe Illustrator 24.2.0, SVG Export Plug-In . SVG Version: 6.00 Build 0)  -->
<svg version="1.1" id="Layer_1" xmlns="http://www.w3.org/2000/svg" xmlns:xlink="http://www.w3.org/1999/xlink" x="0px" y="0px"
	 viewBox="0 0 219.93 250.42" style="enable-background:new 0 0 219.93 250.42;" xml:space="preserve">
<style type="text/css">
	.st0{fill:#D34818;}
</style>
<g>
	<path class="st0" d="M13.11,14.6c65.5,0,131,0,196.5,0c-0.57,7.69-1.07,15.38-1.71,23.06c-1.02,12.14-2.11,24.28-3.21,36.41
		c-1.39,15.35-2.86,30.7-4.23,46.06c-1.37,15.36-2.64,30.72-4.01,46.08c-1.38,15.48-2.93,30.95-4.16,46.44
		c-0.21,2.59-1,3.69-3.42,4.35c-24.75,6.76-49.47,13.64-74.24,20.35c-2.05,0.55-4.49,0.54-6.55,0.01
		c-9.41-2.41-18.76-5.09-28.12-7.67c-15.37-4.25-30.75-8.45-46.08-12.82c-1.26-0.36-3.06-1.71-3.17-2.76
		c-1.22-11.5-2.15-23.02-3.16-34.54c-1.08-12.26-2.15-24.52-3.25-36.78c-1.41-15.73-2.83-31.45-4.25-47.18
		c-1.14-12.63-2.34-25.25-3.42-37.89C15.4,43.36,14.28,28.98,13.11,14.6z M141.36,131.25c-0.84,9.18-1.93,17.58-2.25,26.01
		c-0.16,4.18-1.57,6.19-5.6,6.57c-0.49,0.05-0.98,0.2-1.46,0.33c-6.99,1.87-13.97,5.2-20.96,5.19c-6.99,0-13.98-3.32-20.97-5.2
		c-5.98-1.61-5.98-1.62-6.57-7.56c-0.22-2.23-0.37-4.47-0.64-6.69c-1.17-9.81,0.63-7.82-8.71-8.02c-5.7-0.12-11.41-0.02-17.57-0.02
		c1.16,12.77,2.35,24.88,3.31,37.01c0.2,2.59,1.24,3.58,3.65,4.23c15.06,4.07,30.06,8.36,45.12,12.4c1.91,0.51,4.21,0.41,6.14-0.1
		c13.62-3.64,27.18-7.46,40.76-11.22c7.24-2,7.05-2.02,7.69-9.71c1.54-18.35,3.29-36.68,4.93-55.02c0.4-4.51,0.7-9.02,1.05-13.66
		c-1.65-0.11-2.63-0.23-3.61-0.23c-17.62-0.01-35.24-0.02-52.85,0c-10.25,0.01-20.49,0.11-30.73,0c-1.12-0.01-3.13-1.08-3.22-1.83
		c-0.86-7.37-1.41-14.77-2.06-22.35c1.21-0.14,1.93-0.3,2.65-0.3c10.62,0,21.24,0.03,31.86,0.04c18.99,0.03,37.98,0.01,56.97,0.12
		c2.66,0.02,3.49-1.14,3.66-3.48c0.33-4.59,0.76-9.18,1.14-13.76c0.22-2.67,0.44-5.33,0.68-8.17c-41.82,0-83.09,0-124.5,0
		c-0.06,1.04-0.2,1.77-0.14,2.49c2.02,22.81,4.14,45.62,6.03,68.44c0.3,3.59,1.71,4.38,5.11,4.37c25.24-0.08,50.47,0.05,75.71,0.11
		C137.59,131.25,139.18,131.25,141.36,131.25z"/>
</g>
</svg>
