<?xml version="1.0" encoding="utf-8"?>
<!-- Generator: Adobe Illustrator 24.2.0, SVG Export Plug-In . SVG Version: 6.00 Build 0)  -->
<svg version="1.1" xmlns="http://www.w3.org/2000/svg" xmlns:xlink="http://www.w3.org/1999/xlink" x="0px" y="0px"
	 viewBox="0 0 202.46 201.79" style="enable-background:new 0 0 202.46 201.79;" xml:space="preserve">
<style type="text/css">
	.st0{fill:#795548;}
	.st1{fill:#FFFFFF;}
</style>
<g id="Layer_2">
	<path class="st0" d="M202.37,98.21c2.17,50.65-36.03,97.88-90.35,103.58C54.73,207.8,6.83,166.17,0.67,112.69
		C-5.88,55.74,36.12,6.18,90.51,0.56C151.21-5.71,201.21,41.45,202.37,98.21z M143.52,69.23c0.43,0.24,0.86,0.48,1.29,0.71
		c0,6.46-0.03,12.92,0.01,19.38c0.03,5.83,2.84,9.3,7.4,9.28c4.64-0.02,7.62-3.52,7.64-9.14c0.04-12.5,0.04-24.99,0-37.49
		c-0.02-6.36-2.76-9.17-9.07-9.2c-12.5-0.06-25-0.05-37.5,0c-5.62,0.02-9.22,3.13-9.17,7.69c0.05,4.59,3.51,7.48,9.24,7.55
		c6.42,0.07,12.83,0.02,20.77,0.02c-4.02,3.91-7.19,6.57-9.82,9.68c-2.73,3.21-5.81,4.19-9.98,4.15c-20.17-0.21-40.33-0.1-60.5-0.09
		c-8.78,0-11.04,2.21-11.04,10.76c0,22.49-0.01,44.99,0.01,67.48c0.01,6.94,2.66,9.61,9.65,9.62c22.83,0.03,45.67,0.03,68.5,0
		c7.36-0.01,9.89-2.56,9.89-9.89c0.01-20.99-0.04-41.99,0.08-62.98c0.01-1.98,0.54-4.38,1.74-5.84
		C136.03,76.81,139.87,73.09,143.52,69.23z"/>
	<path class="st0" d="M36.4,140.01l-1.61,16.62l25.71,15.82l58.55-2.77l21.76-5.54l-1.58-55.78l24.53-7.18l2.77-35.15l-9.1-26.11
		l-27.69-5.14c0,0-47.47,7.19-48.66,7.95c-1.19,0.76-42.73,15.79-42.73,15.79L36.4,140.01z"/>
</g>
<g id="Layer_1">
	<g>
		<path class="st1" d="M34.27,100.97c0.34-2.45,0.63-4.91,1.02-7.35c1.54-9.59,5.22-18.33,10.7-26.31
			c8.3-12.08,19.42-20.53,33.19-25.44c9.35-3.33,19.01-4.27,28.88-3.35c12.3,1.15,23.36,5.5,33.24,12.84
			c12.02,8.94,20.14,20.65,24.42,35c2.75,9.21,3.34,18.62,2.02,28.12c-2.61,18.73-11.91,33.55-26.81,44.95
			c-5.41,4.13-11.49,7.09-17.93,9.29c-2.95,1.01-4.96-0.41-4.97-3.52c-0.02-5.81,0.01-11.61-0.01-17.42
			c-0.01-2.89-0.17-5.79-1.43-8.45c-0.74-1.55-1.76-2.97-2.67-4.46c2.45-0.46,5.11-0.8,7.68-1.46c6.83-1.76,12.95-4.79,17.1-10.79
			c3.02-4.36,4.41-9.36,5.03-14.57c0.47-3.95,0.6-7.91-0.16-11.86c-0.84-4.38-2.74-8.26-5.67-11.61c-0.53-0.61-0.62-1.11-0.36-1.85
			c1.93-5.52,1.18-10.92-0.86-16.22c-0.13-0.33-0.68-0.63-1.07-0.69c-2.33-0.33-4.54,0.33-6.58,1.29c-3.38,1.59-6.65,3.43-10,5.09
			c-0.6,0.3-1.42,0.48-2.05,0.33c-10.45-2.61-20.89-2.62-31.34,0.01c-0.62,0.16-1.49-0.02-2.04-0.37
			c-4.26-2.71-8.75-4.87-13.65-6.16c-0.08-0.02-0.17-0.06-0.25-0.07c-3.13-0.66-3.68-0.31-4.58,2.77
			c-1.39,4.76-1.64,9.51,0.02,14.28c0.13,0.38,0.01,1.05-0.26,1.36c-5.63,6.4-6.9,13.97-6.13,22.14c0.45,4.78,1.58,9.36,3.72,13.67
			c3.02,6.07,8.13,9.77,14.32,11.91c3.68,1.27,7.61,1.8,11.42,2.67c0.2,0.05,0.41,0.07,0.44,0.07c-0.98,1.78-1.98,3.53-2.9,5.32
			c-0.31,0.61-0.55,1.32-0.57,2c-0.06,1.41-0.8,2.05-2.08,2.4c-4.25,1.15-8.46,1.89-12.52-0.6c-2.13-1.31-3.72-3.14-4.98-5.28
			c-1.93-3.29-4.64-5.7-8.31-6.78c-1.36-0.4-2.9-0.29-4.35-0.21c-0.88,0.05-1.17,0.77-0.57,1.52c0.59,0.74,1.18,1.59,1.98,2.05
			c3.6,2.09,5.62,5.39,7.23,9.03c0.92,2.08,1.79,4.15,3.55,5.73c2.82,2.53,6.22,3.49,9.86,3.65c3.16,0.14,6.33,0.03,9.7,0.03
			c0,1.9-0.01,4.11,0,6.33c0.01,1.7,0.06,3.4,0.06,5.11c-0.01,3.14-2.08,4.66-5.05,3.65c-9.91-3.38-18.63-8.7-25.95-16.21
			c-7.09-7.28-12.51-15.64-15.85-25.29c-1.89-5.47-2.99-11.1-3.43-16.87c-0.04-0.51-0.14-1.02-0.21-1.53
			C34.27,106.21,34.27,103.59,34.27,100.97z"/>
	</g>
</g>
</svg>
