<?xml version="1.0" encoding="utf-8"?>
<!-- Generator: Adobe Illustrator 24.2.0, SVG Export Plug-In . SVG Version: 6.00 Build 0)  -->
<svg version="1.1" id="Layer_1" xmlns="http://www.w3.org/2000/svg" xmlns:xlink="http://www.w3.org/1999/xlink" x="0px" y="0px"
	 viewBox="0 0 197.98 198.06" style="enable-background:new 0 0 197.98 198.06;" xml:space="preserve">
<style type="text/css">
	.st0{display:none;}
	.st1{fill:#008CFF;}
</style>
<g id="Layer_1_1_" class="st0">
</g>
<g>
	<path class="st1" d="M37.99,198.02c0.55-2.65,0.84-4.22,1.22-5.78c5.14-21.23,10.19-42.48,15.57-63.65c0.89-3.52,0-5.41-2.53-7.59
		C36.17,107.17,20.21,93.2,4.21,79.27C3.1,78.31,2.02,77.31,0,75.49C5.96,75,10.9,74.52,15.86,74.2
		c17.36-1.13,34.72-2.32,52.09-3.21c3.42-0.17,4.87-1.46,6-4.5c7.59-20.48,15.34-40.89,23.06-61.32C97.56,3.7,98.23,2.28,99.2,0
		c0.97,2.33,1.61,3.78,2.17,5.26c7.59,20.12,15.29,40.21,22.63,60.42c1.45,3.99,3.51,5.11,7.51,5.33
		c21.34,1.18,42.66,2.67,63.99,4.07c0.59,0.04,1.17,0.27,2.48,0.59c-1.63,1.53-2.75,2.64-3.94,3.68
		c-16,13.93-31.96,27.9-48.07,41.71c-2.63,2.26-3.22,4.23-2.36,7.64c5.34,21.18,10.39,42.43,15.53,63.66
		c0.37,1.52,0.63,3.06,1.18,5.72c-3.33-2.2-5.65-3.73-7.96-5.27c-16.39-10.94-32.85-21.79-49.12-32.92
		c-3.15-2.15-5.17-1.98-8.22,0.09c-17.12,11.65-34.4,23.05-51.63,34.53C41.93,195.48,40.43,196.44,37.99,198.02z"/>
</g>
</svg>
