<?xml version="1.0" encoding="utf-8"?>
<!-- Generator: Adobe Illustrator 24.2.0, SVG Export Plug-In . SVG Version: 6.00 Build 0)  -->
<svg version="1.1" id="Layer_1" xmlns="http://www.w3.org/2000/svg" xmlns:xlink="http://www.w3.org/1999/xlink" x="0px" y="0px"
	 viewBox="0 0 367.91 363.16" style="enable-background:new 0 0 367.91 363.16;" xml:space="preserve">
<g>
	<path d="M14.73,174.96c6.01-5.88,12.05-11.67,17.94-17.58c25.02-25.12,50.02-50.26,74.97-75.44c1.39-1.4,2.73-1.95,4.69-1.92
		c11.42,0.18,22.84,0.21,34.25,0.35c1.24,0.02,1.93-0.31,2.55-1.44c5.83-10.43,11.75-20.82,17.6-31.25c0.56-0.99,1.25-1.5,2.33-1.79
		C211.2,34.61,253.32,23.3,295.44,12c0.31-0.08,0.63-0.14,1.1-0.24c1.07,4.04,2.14,8.03,3.2,12.02
		c9.74,36.56,19.47,73.12,29.21,109.68c0.6,2.26,1.14,4.55,1.84,6.78c0.37,1.16,0.16,2.05-0.44,3.06
		c-6.02,10.33-11.98,20.69-18,31.01c-0.55,0.94-0.51,1.58,0.02,2.5c6.05,10.38,12.06,20.77,18.02,31.2
		c0.42,0.74,0.57,1.89,0.35,2.71c-11.24,42.31-22.52,84.6-33.81,126.9c-0.12,0.46-0.3,0.91-0.49,1.46
		c-5.55-1.5-11.02-2.97-16.49-4.45c-36.99-10.02-73.98-20.04-110.98-30.04c-1.02-0.28-1.67-0.74-2.2-1.69
		c-5.87-10.48-11.8-20.92-17.66-31.4c-0.59-1.06-1.24-1.39-2.42-1.37c-11.8,0.14-23.6,0.21-35.4,0.35
		c-1.18,0.01-2.03-0.29-2.87-1.14c-30.79-31.01-61.6-62-92.41-93C15.67,175.99,15.35,175.62,14.73,174.96z M80.18,191.19
		c0.8,0.84,1.28,1.35,1.77,1.85c22.88,23.48,45.75,46.96,68.65,70.41c0.64,0.65,1.6,1.13,2.5,1.36
		c29.18,7.58,58.37,15.12,87.56,22.66c3.15,0.81,6.3,1.61,9.77,2.49c-0.42-0.77-0.66-1.24-0.92-1.7
		c-18.31-31.85-36.62-63.7-54.89-95.57c-0.66-1.15-1.37-1.54-2.68-1.54c-35.9,0.04-71.8,0.03-107.7,0.03
		C83.04,191.19,81.85,191.19,80.18,191.19z M277.85,273.95c0.25-0.78,0.43-1.29,0.57-1.81c8.84-31.94,17.69-63.87,26.5-95.81
		c0.19-0.69,0.18-1.52-0.01-2.21c-8.15-29.53-16.32-59.05-24.5-88.57c-0.81-2.91-1.62-5.81-2.51-9.01c-0.46,0.75-0.75,1.2-1.02,1.67
		c-18.28,31.8-36.54,63.6-54.86,95.38c-0.74,1.29-0.66,2.15,0.04,3.37c17.85,30.98,35.65,61.98,53.46,92.98
		C276.25,271.21,276.99,272.47,277.85,273.95z M250.17,60.27c-0.93,0.21-1.62,0.34-2.29,0.51c-29.7,7.71-59.38,15.52-89.13,23.03
		c-5.02,1.27-8.9,3.48-12.5,7.2c-19.96,20.67-40.13,41.13-60.22,61.67c-1.96,2.01-3.92,4.02-6.15,6.31c0.89,0,1.36,0,1.83,0
		c36.66,0,73.32-0.01,109.98,0.04c1.35,0,2.02-0.48,2.65-1.58c16.1-28.08,32.24-56.14,48.37-84.2
		C245.15,69,247.6,64.75,250.17,60.27z"/>
</g>
</svg>
