<?xml version="1.0" encoding="utf-8"?>
<!-- Generator: Adobe Illustrator 24.2.0, SVG Export Plug-In . SVG Version: 6.00 Build 0)  -->
<svg version="1.1" id="Layer_1" xmlns="http://www.w3.org/2000/svg" xmlns:xlink="http://www.w3.org/1999/xlink" x="0px" y="0px"
	 viewBox="0 0 600 600" style="enable-background:new 0 0 600 600;" xml:space="preserve">
<style type="text/css">
	.st0{fill:#09A1A1;}
	.st1{fill:#001717;}
	.st2{fill:#015051;}
	.st3{fill:#016B6B;}
	.st4{fill:#002122;}
	.st5{fill:#013535;}
	.st6{fill:#FFFFFF;}
</style>
<g>
	<rect x="10" y="10" class="st0" width="580" height="580"/>
	<g>
		<g>
			<polygon class="st1" points="279.95,199.92 279.39,199.73 279.39,148.79 279.96,148.28 280.16,147.96 468.35,269.95 
				279.92,199.98 			"/>
			<polygon class="st1" points="279.95,340.05 279.92,339.99 468.35,270.03 280.14,392.01 279.96,391.73 279.39,391.73 
				279.39,340.25 			"/>
			<polygon class="st2" points="366.72,67.21 468.35,269.95 280.16,147.96 279.92,147.81 279.96,147.71 366.11,67.78 			"/>
			<polygon class="st2" points="468.35,270.03 366.72,472.76 366.15,472.21 279.96,392.27 279.92,392.17 280.14,392.01 			"/>
			<polygon class="st3" points="279.92,147.81 280.16,147.96 279.96,148.28 279.39,148.28 142.14,148.28 140.9,147.81 175.32,67.71 
				175.32,67.71 175.5,67.78 366.11,67.78 279.96,147.71 			"/>
			<polygon class="st3" points="279.96,148.28 279.39,148.79 279.39,148.28 			"/>
			<polygon class="st3" points="279.96,391.73 280.14,392.01 279.92,392.17 279.96,392.27 366.15,472.21 175.5,472.21 
				175.32,472.29 140.9,392.17 142.06,391.73 278.78,391.73 279.39,392.3 279.39,391.73 			"/>
			<polygon class="st2" points="279.92,199.98 468.35,269.95 468.35,270.03 279.92,339.99 279.95,340.05 279.39,340.25 
				279.39,340.07 279.39,270.14 279.39,269.87 279.39,199.94 279.39,199.73 279.95,199.92 			"/>
			<polygon class="st3" points="279.39,391.73 279.39,392.3 278.78,391.73 			"/>
			<polygon class="st4" points="279.39,340.25 279.39,391.73 278.78,391.73 239.58,355.17 			"/>
			<polygon class="st3" points="279.39,340.07 279.39,340.25 239.58,355.17 149.19,270.1 149.19,269.87 239.58,184.81 
				279.39,199.73 279.39,199.94 279.39,269.87 279.39,270.14 			"/>
			<polygon class="st4" points="279.39,148.79 279.39,199.73 239.58,184.81 			"/>
			<polygon class="st5" points="279.39,148.28 279.39,148.79 239.58,184.81 142.14,148.28 			"/>
			<polygon class="st5" points="278.78,391.73 142.06,391.73 239.58,355.17 			"/>
		</g>
	</g>
	<path class="st6" d="M215.45,504.54h15.76l5.14,19.78l1.67,7.83h0.27l1.67-7.83l4.84-19.78h15.77v60.64h-12.87v-14.27
		c0-1.81,0.08-4.09,0.24-6.85c0.16-2.78,0.34-5.63,0.51-8.58c0.18-2.95,0.41-5.81,0.65-8.54c0.26-2.74,0.47-5,0.65-6.81h-0.28
		l-5.04,18.01l-3.17,10.92h-6.91l-3.17-10.92l-4.76-18.01h-0.37c0.18,1.81,0.41,4.07,0.65,6.81c0.26,2.73,0.47,5.59,0.65,8.54
		c0.18,2.95,0.35,5.83,0.51,8.58c0.16,2.77,0.24,5.06,0.24,6.85v14.27h-12.69L215.45,504.54L215.45,504.54z"/>
	<path class="st6" d="M312.65,552.31h-16.61l-2.99,12.87h-16.41l18.28-60.64h19.41l18.28,60.64h-16.98L312.65,552.31z
		 M309.76,539.89l-0.92-4.19c-0.69-2.93-1.4-6.1-2.15-9.5c-0.75-3.43-1.5-6.65-2.24-9.7h-0.37c-0.69,3.11-1.38,6.36-2.11,9.74
		c-0.71,3.38-1.42,6.55-2.11,9.47l-0.93,4.19H309.76L309.76,539.89z"/>
	<path class="st6" d="M361.15,534.03l-16.51-29.48h17.91l4.84,9.88c0.69,1.44,1.4,2.97,2.15,4.63c0.75,1.65,1.55,3.46,2.42,5.45
		h0.38c0.69-1.99,1.36-3.82,2.05-5.45c0.69-1.65,1.34-3.19,1.97-4.63l4.29-9.88h17.16l-16.51,30.23l17.54,30.41h-17.91l-5.59-10.82
		c-0.87-1.61-1.67-3.23-2.38-4.84c-0.71-1.61-1.48-3.36-2.28-5.21h-0.37c-0.69,1.87-1.38,3.6-2.1,5.21
		c-0.71,1.62-1.44,3.23-2.19,4.84l-5.21,10.82h-17.16L361.15,534.03z"/>
</g>
</svg>
