<?xml version="1.0" encoding="utf-8"?>
<!-- Generator: Adobe Illustrator 24.2.0, SVG Export Plug-In . SVG Version: 6.00 Build 0)  -->
<svg version="1.1" id="Layer_1" xmlns="http://www.w3.org/2000/svg" xmlns:xlink="http://www.w3.org/1999/xlink" x="0px" y="0px"
	 viewBox="0 0 468 473" style="enable-background:new 0 0 468 473;" xml:space="preserve">
<style type="text/css">
	.st0{fill:#7C7C7C;}
</style>
<g>
	<path class="st0" d="M426.26,115.55c-3.88-5.44-8.9-7.79-15.16-7.78c-14.34,0.03-28.68,0.23-43-0.18c-2.66-0.08-6.1-2.12-7.58-4.33
		c-1.18-1.76-0.75-5.68,0.51-7.67c1.16-1.83,4.35-3.29,6.67-3.34c15-0.28,30.01-0.41,45-0.02c10.3,0.27,18.32,5.54,24.51,13.61
		c6.39,8.34,9.7,17.87,9.71,28.32c0.09,71.17,0.1,142.34,0.04,213.51c-0.02,19.52-12.87,32.14-32.42,32.16
		c-27.84,0.03-55.68,0-83.52-0.01c-0.33,0-0.67,0-1,0c-6.9-0.04-10.66-2.74-10.74-7.71c-0.08-5.15,3.76-7.96,10.99-7.97
		c14.67-0.01,29.34,0,44.01,0c13,0,26.01,0,39.01-0.02c1.27,0,2.53-0.14,4.73-0.28c-2.05-1.69-3.35-2.86-4.75-3.9
		c-35.95-27.05-71.91-54.08-107.87-81.11c-0.8-0.6-1.62-1.17-2.4-1.8c-4.12-3.37-4.91-7.65-2.1-11.33c2.71-3.55,7.4-4.06,11.55-0.98
		c11.51,8.54,22.94,17.17,34.4,25.78c26.64,20.02,53.28,40.04,79.93,60.05c1.14,0.85,2.39,1.56,4.15,2.7c0-73.75,0-146.78,0-220.67
		c-1.93,1.54-3.45,2.67-4.88,3.91c-53.25,45.95-106.48,91.92-159.73,137.87c-5.95,5.14-8.61,5.11-14.68-0.14
		c-54.51-47.04-109.01-94.09-163.51-141.14c-1.37-1.18-2.79-2.3-4.7-3.87c-0.26,1.51-0.41,2.53-0.62,3.54
		c-0.92,4.41-4.48,7.36-8.39,7c-4.07-0.37-7.31-3.72-7.13-8.21c0.15-3.61,0.78-7.31,1.87-10.76c5.39-17.01,21.46-28.66,39.2-28.68
		c15.84-0.01,31.67-0.01,47.51,0c7.21,0,11.09,2.82,10.99,7.95c-0.09,5.06-3.95,7.71-11.26,7.71c-16.5,0.01-33.01-0.01-49.51,0.05
		c-5.81,0.02-11.07,1.67-15.92,6.28c4.19,3.66,8.13,7.15,12.1,10.58c50.84,43.9,101.7,87.76,152.46,131.75
		c3.21,2.78,5.07,3.19,8.57,0.16c52.74-45.77,105.64-91.37,158.5-137.01C423.27,118.28,424.72,116.94,426.26,115.55z"/>
	<path class="st0" d="M133.34,227.62c-0.02,10.41-4.16,19.02-11.95,25.45c-6.51,5.38-13.61,10.15-20.9,14.41
		c-3.6,2.1-4.83,4.32-4.82,8.21c0.03,10.12,2.94,19.47,7.92,28.04c16.08,27.66,38,49.59,65.96,65.24
		c8.34,4.67,17.47,7.28,27.23,7.19c3.4-0.03,5.24-1.42,7.05-4.34c4.55-7.33,9.08-14.82,14.71-21.28
		c10.93-12.53,24.78-15.44,40.33-9.67c18.92,7.03,32.21,20.88,43.69,36.75c6.28,8.69,11.35,18,12.78,28.92
		c1.12,8.5-1.07,15.85-7.26,21.84c-17.22,16.66-37.73,27.1-61.17,31.71c-2.93,0.58-6.28-0.12-9.27-0.89
		c-70.68-18.06-128.03-56.44-172.34-114.16c-25.31-32.98-43.51-69.59-53.63-110.08c-1.3-5.21-1.04-10.07,0.31-15.17
		c5.28-19.81,14.51-37.39,28.2-52.76c8.79-9.87,19.52-13.28,31.51-8.83c29.43,10.93,51.02,30.15,60.46,61.07
		C132.97,221.92,132.96,224.83,133.34,227.62z M196.48,391.78c-11.66-0.27-21.36-3.05-30.64-7.42
		c-16.17-7.62-30.03-18.48-42.71-30.9c-16.06-15.73-30.27-32.83-38.48-54.14c-4.08-10.59-5.9-21.46-3.46-32.79
		c1.12-5.18,3.76-8.51,8.69-11.22c7.94-4.37,15.55-9.61,22.52-15.42c5.62-4.67,7.2-11.6,4.86-18.71c-1.44-4.37-3.25-8.8-5.79-12.61
		c-8.78-13.24-20.27-23.79-33.79-32.08c-2.67-1.64-5.62-2.93-8.6-3.9c-6.37-2.08-11.91-1.03-16.73,4.23
		c-11.82,12.91-20.17,27.7-24.52,44.59c-1.03,4-1.19,8.71-0.16,12.67c12.46,47.9,36.46,89.51,70.26,125.41
		c38.92,41.35,85.78,69.72,140.92,83.98c3.26,0.84,7.08,1.1,10.31,0.29c17.58-4.4,33.12-12.74,46.56-25.04
		c5-4.58,6.08-9.87,3.84-15.81c-1.57-4.16-3.31-8.59-6.15-11.89c-8.46-9.8-17.3-19.28-26.43-28.46c-2.96-2.97-7.09-4.98-10.97-6.79
		c-9.92-4.61-18.72-3.23-25.74,5.09c-5.31,6.29-10.02,13.34-13.69,20.7c-2.64,5.29-6.16,8.02-11.49,9.05
		C201.81,391.25,198.48,391.51,196.48,391.78z"/>
	<path class="st0" d="M292.38,130.96c-8.53,8.18-17.5,11.88-28.02,11.9c-11.31,0.02-20.28-4.52-27.09-13.45
		c-13.6-17.85-13.32-43.45,0.61-59.18c13.86-15.65,39.04-16.77,54.23-2.34c4.46,4.24,7.62,9.32,8.14,15.59
		c0.35,4.26-1.98,7.1-6.03,7.99c-4.1,0.91-7.19-1.01-8.81-4.84c-4.31-10.18-11.67-14.49-23.35-13.48
		c-9.71,0.84-16.09,6.57-18.31,16.9c-1.9,8.85-1.22,17.65,2.4,25.95c5.25,12.01,24.98,15.74,33.97,6.14
		c2.52-2.69,3.54-7.32,4.09-11.22c0.99-7.08,5.73-11.47,11.13-8.69c2.4,1.24,3.93,4.44,5.46,6.98c0.59,0.98,0.12,2.61,0.14,3.94
		c0.1,7.42,3.32,12.12,9.32,13.64c7.1,1.8,13.2-0.52,16.55-6.96c1.73-3.33,2.95-7.1,3.61-10.8c2.28-12.93,2.08-25.99-0.95-38.7
		c-5.98-25.08-23.95-37.33-47.81-42.46c-11.67-2.51-23.48-2.68-35.22-0.04c-21.75,4.88-37.31,17.4-45.16,38.34
		c-7.49,19.96-7.82,40.5-1.28,60.76c8.86,27.44,32.67,45.71,61.54,46.79c10.52,0.39,21.24-0.96,31.66-2.75
		c9.36-1.61,17.17-6.98,23.65-14.06c4.13-4.51,8.55-5.16,12.15-1.98c3.85,3.4,3.64,7.92-0.81,12.66
		c-11.46,12.22-26.13,18.07-42.27,20.69c-26.17,4.24-50.52-0.1-71.73-16.79c-27.2-21.4-36.58-50.26-33.51-83.75
		c2.28-24.85,12.47-45.79,32.88-60.94c37.31-27.71,96.27-18.53,121.68,18.69c11.18,16.37,12.78,34.66,11.24,53.6
		c-0.93,11.42-3.55,22.39-10.4,31.88c-10.59,14.66-28.71,16.07-41.47,3.28C293.8,133.47,293.3,132.35,292.38,130.96z"/>
	<path class="st0" d="M142.74,332.82c-2.37-1.98-5.63-3.42-6.39-5.69c-0.83-2.48-0.05-6.16,1.35-8.53c1.43-2.41,4.47-3.88,6.82-5.74
		c19.63-15.48,39.26-30.95,58.9-46.42c1.18-0.93,2.31-1.98,3.62-2.66c3.66-1.87,7.12-1.57,9.93,1.65c2.72,3.11,2.51,7.26-0.46,10.41
		c-0.79,0.84-1.78,1.5-2.7,2.22c-21.2,16.72-42.39,33.45-63.63,50.11C148.15,329.78,145.77,330.95,142.74,332.82z"/>
</g>
</svg>
