<?xml version="1.0" encoding="utf-8"?>
<!-- Generator: Adobe Illustrator 24.2.0, SVG Export Plug-In . SVG Version: 6.00 Build 0)  -->
<svg version="1.1" id="Layer_1" xmlns="http://www.w3.org/2000/svg" xmlns:xlink="http://www.w3.org/1999/xlink" x="0px" y="0px"
	 viewBox="0 0 200 199.08" style="enable-background:new 0 0 200 199.08;" xml:space="preserve">
<style type="text/css">
	.st0{fill:#F90000;}
	.st1{fill:#FF0000;}
</style>
<g>
	<path class="st0" d="M31.36,99.17c0-22.16-0.02-44.32,0-66.48c0.01-14.55,5.73-20.21,20.32-20.22c23.16-0.02,46.32-0.08,69.47,0.05
		c1.73,0.01,3.87,0.94,5.11,2.16c14.01,13.79,27.9,27.71,41.76,41.65c0.85,0.85,1.71,2.19,1.71,3.3
		c-0.04,36.64-0.02,73.28-0.53,109.91c-0.06,4.22-2.18,9.38-5.13,12.3c-2.82,2.79-7.96,4.45-12.1,4.5
		c-34.32,0.34-68.64,0.26-102.96,0.16c-11.43-0.03-17.59-6.51-17.63-18.35C31.3,145.15,31.37,122.16,31.36,99.17z M121.08,16.93
		c-2.12-0.11-3.74-0.26-5.37-0.26c-21.82-0.02-43.65-0.03-65.47,0c-10.6,0.01-14.69,4.16-14.7,14.94
		c-0.02,45.31-0.02,90.62,0,135.94c0,10.73,4.08,14.78,14.81,14.79c33.32,0.02,66.64,0.02,99.95,0c11.1-0.01,14.97-3.92,14.98-15.08
		c0.01-33.65,0.01-67.3-0.01-100.95c0-1.62-0.14-3.24-0.24-5.39c-9.55,0-18.83,0.03-28.12-0.01c-11.06-0.04-15.83-4.82-15.84-15.83
		C121.07,35.79,121.08,26.5,121.08,16.93z M125.19,20.94c0,9.21-0.13,18.17,0.06,27.12c0.1,4.5,2.67,8.1,7.12,8.33
		c9.51,0.5,19.06,0.15,28.38,0.15C148.94,44.72,137.25,33.02,125.19,20.94z"/>
	<path class="st1" d="M125.19,20.94c12.06,12.08,23.75,23.78,35.56,35.6c-9.32,0-18.87,0.35-28.38-0.15
		c-4.45-0.23-7.03-3.83-7.12-8.33C125.06,39.1,125.19,30.14,125.19,20.94z"/>
	<path class="st1" d="M100.5,108.17c-14.64,0-29.28,0.05-43.92-0.08c-1.51-0.01-3.01-1.13-4.52-1.74c1.56-0.76,3.11-2.16,4.67-2.17
		c29.12-0.13,58.23-0.1,87.35-0.09c1.16,0,2.38-0.05,3.44,0.31c0.59,0.2,1.26,1.21,1.25,1.84c-0.01,0.59-0.79,1.52-1.38,1.66
		c-1.27,0.31-2.63,0.25-3.96,0.25C129.12,108.17,114.81,108.17,100.5,108.17z"/>
	<path class="st1" d="M101.05,130.72c14.47,0,28.95-0.06,43.42,0.09c1.47,0.01,2.93,1.22,4.39,1.88c-1.45,0.71-2.9,2.04-4.35,2.05
		c-29.44,0.12-58.89,0.12-88.33-0.01c-1.38-0.01-2.75-1.46-4.12-2.25c1.36-0.58,2.71-1.66,4.08-1.68
		C71.11,130.68,86.08,130.72,101.05,130.72z"/>
	<path class="st1" d="M71.76,82.55c-4.16,0-8.32,0.11-12.47-0.02c-5.27-0.16-7.22-2.13-7.31-7.31c-0.1-5.79-0.86-11.86,3.98-16.35
		c1.17-1.09,3.22-1.23,4.87-1.81c-0.62,1.48-0.91,3.27-1.93,4.39c-4.14,4.56-2.73,10.01-2.66,15.21c0.01,0.58,1.67,1.61,2.58,1.62
		c8.64,0.11,17.29,0.11,25.93-0.04c0.85-0.01,2.39-1.17,2.4-1.82c0.1-5.53,1.5-11.39-3.57-15.87c-0.79-0.7-0.69-2.41-1-3.65
		c1.29,0.29,2.86,0.2,3.81,0.93c4.83,3.72,7.49,16.75,4.12,21.64c-1.1,1.6-3.76,2.73-5.82,2.94C80.44,82.86,76.09,82.55,71.76,82.55
		z"/>
	<path class="st1" d="M87.99,157.07c10.64,0,21.28-0.08,31.92,0.1c1.39,0.02,2.76,1.41,4.14,2.17c-1.33,0.6-2.66,1.73-4,1.73
		c-21.28,0.11-42.56,0.12-63.84-0.02c-1.39-0.01-2.77-1.35-4.15-2.08c1.5-0.64,2.99-1.8,4.5-1.83
		C67.04,156.99,77.52,157.07,87.99,157.07z"/>
	<path class="st1" d="M71.7,36.83c6.42-0.03,12.45,5.84,12.26,11.96C83.79,54.84,78,60.4,71.83,60.43
		c-6.79,0.03-11.94-5.18-11.88-12.01C60.01,41.85,65.07,36.86,71.7,36.83z M79.1,48.67c0.05-4.58-2.7-7.58-7.09-7.75
		c-4.4-0.17-8,3.23-8.04,7.6c-0.04,4.32,3.52,7.8,7.92,7.76C76.29,56.23,79.05,53.31,79.1,48.67z"/>
	<path class="st1" d="M79.1,48.67c-0.05,4.65-2.81,7.57-7.21,7.61c-4.4,0.05-7.96-3.44-7.92-7.76c0.04-4.37,3.63-7.77,8.04-7.6
		C76.4,41.08,79.14,44.08,79.1,48.67z"/>
</g>
</svg>
