<?xml version="1.0" encoding="utf-8"?>
<!-- Generator: Adobe Illustrator 24.2.0, SVG Export Plug-In . SVG Version: 6.00 Build 0)  -->
<svg version="1.1" id="Layer_1" xmlns="http://www.w3.org/2000/svg" xmlns:xlink="http://www.w3.org/1999/xlink" x="0px" y="0px"
	 viewBox="0 0 1200 1200" style="enable-background:new 0 0 1200 1200;" xml:space="preserve">
<g>
	<path d="M600.08,112.5c268.71,0.07,487.38,218.77,487.42,487.47c0.04,268.79-219.04,487.75-487.78,487.52
		c-268.75-0.23-487.45-219.13-487.22-487.68C112.73,330.98,331.39,112.43,600.08,112.5z M187.5,599.98
		c0.16,227.08,181.59,409.31,406.2,412.45c231.41,3.24,414.92-180.39,418.73-404.71c3.95-233.07-181.19-416.95-405.93-420.18
		C373.36,184.19,187.43,371.28,187.5,599.98z"/>
	<path d="M638.58,412.79c19.38,0.44,37.08,4.49,49.05,21.04c6.52-6.74,12.74-13.86,19.66-20.21c21.17-19.41,45.55-33.98,71.4-46.21
		c25.53-12.08,52.08-21.35,79.34-28.65c1.07-0.29,2.15-0.52,4.21-1.02c-3.06,4-5.6,7.27-8.09,10.57
		c-19.58,25.9-38.9,51.98-54.85,80.35c-2.44,4.34-4.63,8.84-6.78,13.33c-3.48,7.3-5.12,14.89-5.11,23.12
		c0.15,87.87,0.13,175.74,0.02,263.61c-0.01,5.94,2.11,10.32,7.12,12.99c13.37,7.13,27.18,10.95,42.31,5.46
		c21.35-7.75,40.35-19.54,58.34-33.16c14.49-10.97,27.73-23.3,40.08-36.61c0.5-0.54,1.06-1.01,2.27-1.2
		c-0.89,2.72-1.59,5.52-2.71,8.14c-7.73,18.02-18.57,34.19-30.28,49.77c-33.83,45.04-74.3,82.85-122.85,111.68
		c-9.53,5.66-19.55,10.52-29.47,15.5c-1.32,0.66-3.63,0.38-5.05-0.32c-23.05-11.39-46.05-22.89-69.01-34.47
		c-2.37-1.2-3.77-1.02-5.69,0.91c-23.35,23.5-46.77,46.92-70.28,70.25c-1.21,1.2-3.47,2.15-5.1,1.97
		c-38.51-4.3-75.84-13.43-111.7-28.22c-34.27-14.14-65.63-32.82-91.21-60.12c-6.05-6.45-11.31-13.64-16.9-20.52
		c-0.69-0.84-1.16-1.86-1.86-3c6.51,0.55,12.69,1.18,18.88,1.55c12.53,0.75,25.02,0.45,37.07-3.43c3.94-1.27,7.73-3.47,11.12-5.91
		c4.02-2.89,6.02-7.24,6.18-12.29c0.05-1.5,0.09-3,0.09-4.5c0-74.75,0.02-149.49-0.04-224.24c0-3.97-0.22-8.02-0.97-11.91
		c-2.05-10.55-9.38-16.52-20.19-17.13c-13.96-0.79-26.18,4.34-37.86,11.11c-19.69,11.4-35.94,26.91-51,43.73
		c-28.21,31.51-51.03,66.8-72.2,103.25c-1.09,1.88-2.22,3.74-4.18,5.38c0.4-7.92,0.56-15.86,1.23-23.76
		c3.06-35.72,11.97-69.99,26.03-102.94c13.9-32.57,32.07-62.59,54.09-90.27c35.32-44.41,77.67-80.69,126.91-108.87
		c38.81-22.22,80.08-37.98,124.02-46.58c0.86-0.17,1.73-0.25,2.6-0.34c0.33-0.03,0.66,0.03,0.94,0.05
		c-9.48,7.31-19.15,14.34-28.33,21.96c-13.88,11.52-26.84,23.98-36.49,39.45c-5.53,8.87-8.88,18.33-8.37,29.01
		c0.63,13,1.4,25.96,6.09,38.27c1.45,3.81,3.29,7.6,5.65,10.91c6.23,8.73,14.78,12.27,25.72,9.89c0,11.04,0.04,21.89-0.01,32.75
		c-0.3,70.37-0.62,140.73-0.92,211.1c-0.04,9.5-0.37,19.01,0.11,28.48c0.68,13.41,7.62,21.56,20.53,25.29
		c14.87,4.3,29.1,1.87,43.1-3.85c16.81-6.87,32.54-15.76,47.79-25.53c1.06-0.68,1.87-2.59,1.89-3.94
		c0.15-10.37,0.09-20.75,0.09-31.12c0-63-0.23-126,0.14-188.99c0.11-18.24-4.98-34.62-13.6-50.26
		C655.26,432.72,647.76,422.22,638.58,412.79z"/>
</g>
</svg>
