<svg width="762.617" height="860.543" xmlns="http://www.w3.org/2000/svg">

 <g>
  <title>background</title>
  <rect fill="none" id="canvas_background" height="862.543" width="764.617" y="-1" x="-1"/>
 </g>
 <g>
  <title>Layer 1</title>
  <path id="svg_1" fill="#9a4993" d="m758.541,329.983c0,-14.237 -3.034,-27.074 -9.336,-37.811c-6.068,-10.736 -15.171,-19.605 -27.307,-26.607c-100.829,-58.117 -201.891,-116.233 -302.72,-174.35c-27.308,-15.638 -53.449,-15.171 -80.523,0.7c-40.145,23.574 -241.336,138.873 -301.086,173.65c-24.741,14.237 -36.644,36.177 -36.644,64.652l0,351.033c0,14.004 3.034,26.374 8.869,37.111c6.069,10.97 15.405,20.306 27.775,27.541c59.984,34.777 260.941,149.843 301.086,173.65c27.074,15.868 53.448,16.568 80.523,0.7c100.829,-58.35 201.891,-116.233 302.72,-174.35c12.603,-7.235 21.706,-16.338 27.774,-27.541c5.835,-10.737 8.869,-23.107 8.869,-37.111l0,-351.267z"/>
  <path id="svg_2" fill="#6a1577" d="m380.667,504.333l-371.34,213.794c6.069,10.97 15.405,20.306 27.775,27.542c59.984,34.776 260.941,149.842 301.086,173.649c27.074,15.872 53.449,16.572 80.523,0.7c100.829,-58.35 201.891,-116.233 302.72,-174.349c12.603,-7.236 21.706,-16.338 27.774,-27.542l-368.538,-213.794z"/>
  <path id="svg_3" fill="#6a1577" d="m270.735,567.584c21.707,37.811 62.318,63.252 108.765,63.252c46.913,0 87.758,-25.674 109.231,-63.952l-108.064,-62.551l-109.932,63.251z"/>
  <path id="svg_4" fill="#813084" d="m758.542,329.983c0,-14.237 -3.035,-27.074 -9.336,-37.811l-368.539,212.161l369.005,213.795c5.835,-10.737 8.87,-23.107 8.87,-37.111l0,-351.034z"/>
  <g id="svg_5" fill="#fff">
   <path id="svg_6" d="m488.731,566.884c-21.472,38.044 -62.317,63.952 -109.231,63.952c-46.68,0 -87.291,-25.441 -108.764,-63.252c-10.503,-18.438 -16.572,-39.444 -16.572,-62.084c0,-69.32 56.016,-125.336 125.336,-125.336c46.213,0 86.592,25.207 108.298,62.551l109.464,-63.018c-43.645,-75.154 -124.869,-125.802 -217.995,-125.802c-139.107,0 -251.605,112.732 -251.605,251.605c0,45.513 12.136,88.459 33.376,125.336c43.412,75.388 125.102,126.269 218.462,126.269c93.594,0 175.284,-51.114 218.696,-126.969l-109.465,-63.252zm138.406,-120.901l-24.974,0l0,120.668l24.974,0l0,-120.668zm55.316,0l-24.974,0l0,120.668l24.974,0l0,-120.668z"/>
   <path id="svg_7" d="m702.759,466.289l-120.668,0l0,24.974l120.668,0l0,-24.974zm0,55.082l-120.668,0l0,24.974l120.668,0l0,-24.974z"/>
  </g>
 </g>
</svg>